<svg width="882" height="170" viewBox="0 0 882 170" fill="none" xmlns="http://www.w3.org/2000/svg"><path d="M0 125.262H52.5938C63.0101 125.262 72.9142 120.825 80.2568 113.486C87.7702 105.978 91.8684 96.0795 91.8684 85.6695C91.8684 75.0888 87.7702 65.1907 80.2568 57.8525C76.6709 54.0981 72.2311 51.1969 67.4499 49.3197L67.2791 49.149L67.4499 48.9784C70.8651 44.2 72.5726 38.5683 72.5726 32.5954C72.5726 24.9158 69.499 17.5776 64.0347 12.2873C58.7412 6.82626 51.3985 3.75444 43.7143 3.75444H0V125.262ZM15.1976 110.415V61.2656H52.5938C65.913 61.4363 76.6709 72.3583 76.6709 85.6695C76.6709 98.81 65.913 110.073 52.5938 110.415H15.1976ZM15.1976 46.4185V18.6015H43.7143C51.3985 18.9429 57.3751 25.0865 57.3751 32.5954C57.3751 40.1042 51.2277 46.2479 43.7143 46.4185H15.1976Z" fill="url(#paint0_linear_2_31)"/><path d="M108.786 125.262H190.75V110.415H124.154V3.75444H108.786V125.262Z" fill="url(#paint1_linear_2_31)"/><path d="M293.033 125.262H309.597L262.638 3.75444H246.757L199.969 125.262H216.362L229.852 89.9359H279.543L293.033 125.262ZM273.567 74.9181H235.829L254.783 25.7691L273.567 74.9181Z" fill="url(#paint2_linear_2_31)"/><path d="M375.466 112.121C348.486 112.121 326.8 90.4479 326.8 63.4842C326.8 36.6911 348.486 15.0178 375.466 15.0178C390.835 15.0178 405.008 22.0147 414.229 34.4726L426.352 25.5984C414.229 9.3861 395.616 0 375.466 0C340.29 0 311.773 28.4996 311.773 63.4842C311.773 98.6394 340.29 127.139 375.466 127.139C395.445 127.139 414.058 117.924 426.182 101.711L414.229 92.8371C404.837 105.124 390.664 112.121 375.466 112.121Z" fill="url(#paint3_linear_2_31)"/><path d="M552.778 170H572.074L497.302 43.8587L539.821 3.75444H517.964L459.394 58.8764V3.75444H444.196V125.262H459.394V79.3552L485.69 54.61L552.778 170Z" fill="url(#paint4_linear_2_31)"/><path d="M616.3 0C581.295 0 552.778 28.4996 552.778 63.6548C552.778 98.6394 581.295 126.968 616.3 126.968C651.306 126.968 679.994 98.6394 679.994 63.6548C679.994 28.4996 651.306 0 616.3 0ZM616.3 111.951C589.662 111.951 568.146 90.1066 568.146 63.6548C568.146 37.0324 589.662 15.0178 616.3 15.0178C642.939 15.0178 664.454 37.0324 664.454 63.6548C664.454 90.1066 642.939 111.951 616.3 111.951Z" fill="url(#paint5_linear_2_31)"/><path d="M771.873 3.75444V80.7205C771.873 97.9568 758.042 112.121 740.795 112.121C723.719 112.121 709.717 97.9568 709.717 80.7205V3.75444H694.519V80.7205C694.519 106.319 715.352 126.968 740.795 126.968C766.409 126.968 787.241 106.319 787.241 80.7205V3.75444H771.873Z" fill="url(#paint6_linear_2_31)"/><path d="M834.529 125.262H849.897V18.7722H882V3.75444H802.426V18.7722H834.529V125.262Z" fill="url(#paint7_linear_2_31)"/><defs><linearGradient id="paint0_linear_2_31" x1="448.247" y1="-6.00615" x2="441" y2="186.5" gradientUnits="userSpaceOnUse"><stop stop-color="white" stop-opacity="0.61"/><stop offset="0.642022" stop-color="white" stop-opacity="0.38193"/><stop offset="1" stop-color="white" stop-opacity="0.07"/></linearGradient><linearGradient id="paint1_linear_2_31" x1="448.247" y1="-6.00615" x2="441" y2="186.5" gradientUnits="userSpaceOnUse"><stop stop-color="white" stop-opacity="0.61"/><stop offset="0.642022" stop-color="white" stop-opacity="0.38193"/><stop offset="1" stop-color="white" stop-opacity="0.07"/></linearGradient><linearGradient id="paint2_linear_2_31" x1="448.247" y1="-6.00615" x2="441" y2="186.5" gradientUnits="userSpaceOnUse"><stop stop-color="white" stop-opacity="0.61"/><stop offset="0.642022" stop-color="white" stop-opacity="0.38193"/><stop offset="1" stop-color="white" stop-opacity="0.07"/></linearGradient><linearGradient id="paint3_linear_2_31" x1="448.247" y1="-6.00615" x2="441" y2="186.5" gradientUnits="userSpaceOnUse"><stop stop-color="white" stop-opacity="0.61"/><stop offset="0.642022" stop-color="white" stop-opacity="0.38193"/><stop offset="1" stop-color="white" stop-opacity="0.07"/></linearGradient><linearGradient id="paint4_linear_2_31" x1="448.247" y1="-6.00615" x2="441" y2="186.5" gradientUnits="userSpaceOnUse"><stop stop-color="white" stop-opacity="0.61"/><stop offset="0.642022" stop-color="white" stop-opacity="0.38193"/><stop offset="1" stop-color="white" stop-opacity="0.07"/></linearGradient><linearGradient id="paint5_linear_2_31" x1="448.247" y1="-6.00615" x2="441" y2="186.5" gradientUnits="userSpaceOnUse"><stop stop-color="white" stop-opacity="0.61"/><stop offset="0.642022" stop-color="white" stop-opacity="0.38193"/><stop offset="1" stop-color="white" stop-opacity="0.07"/></linearGradient><linearGradient id="paint6_linear_2_31" x1="448.247" y1="-6.00615" x2="441" y2="186.5" gradientUnits="userSpaceOnUse"><stop stop-color="white" stop-opacity="0.61"/><stop offset="0.642022" stop-color="white" stop-opacity="0.38193"/><stop offset="1" stop-color="white" stop-opacity="0.07"/></linearGradient><linearGradient id="paint7_linear_2_31" x1="448.247" y1="-6.00615" x2="441" y2="186.5" gradientUnits="userSpaceOnUse"><stop stop-color="white" stop-opacity="0.61"/><stop offset="0.642022" stop-color="white" stop-opacity="0.38193"/><stop offset="1" stop-color="white" stop-opacity="0.07"/></linearGradient></defs></svg>
