<svg xmlns="http://www.w3.org/2000/svg" width="1179" height="411" fill="none"><path fill="url(#a)" d="M0 225.262h52.594c10.416 0 20.32-4.437 27.663-11.776 7.513-7.508 11.611-17.406 11.611-27.817 0-10.58-4.098-20.478-11.611-27.816-3.586-3.755-8.026-6.656-12.807-8.533l-.17-.171.17-.171c3.415-4.778 5.123-10.41 5.123-16.383 0-7.679-3.074-15.017-8.538-20.308-5.294-5.461-12.636-8.533-20.32-8.533H0v121.508Zm15.198-14.847v-49.149h37.396c13.319.17 24.077 11.092 24.077 24.403 0 13.141-10.758 24.404-24.077 24.746H15.198Zm0-63.996v-27.817h28.516c7.684.341 13.661 6.484 13.661 13.993s-6.147 13.653-13.66 13.824H15.197Z"/><path fill="url(#b)" d="M108.786 225.262h81.964v-14.847h-66.596V103.754h-15.368v121.508Z"/><path fill="url(#c)" d="M293.033 225.262h16.564l-46.959-121.508h-15.881l-46.788 121.508h16.393l13.49-35.326h49.691l13.49 35.326Zm-19.466-50.344h-37.738l18.954-49.149 18.784 49.149Z"/><path fill="url(#d)" d="M375.466 212.121c-26.98 0-48.666-21.673-48.666-48.637 0-26.793 21.686-48.466 48.666-48.466 15.369 0 29.542 6.997 38.763 19.455l12.123-8.875C414.229 109.386 395.616 100 375.466 100c-35.176 0-63.693 28.5-63.693 63.484 0 35.155 28.517 63.655 63.693 63.655 19.979 0 38.592-9.215 50.716-25.428l-11.953-8.874c-9.392 12.287-23.565 19.284-38.763 19.284Z"/><path fill="url(#e)" d="M552.778 270h19.296l-74.772-126.141 42.519-40.105h-21.857l-58.57 55.122v-55.122h-15.198v121.508h15.198v-45.907l26.296-24.745L552.778 270Z"/><path fill="url(#f)" d="M616.3 100c-35.005 0-63.522 28.5-63.522 63.655 0 34.984 28.517 63.313 63.522 63.313 35.006 0 63.694-28.329 63.694-63.313C679.994 128.5 651.306 100 616.3 100Zm0 111.951c-26.638 0-48.154-21.844-48.154-48.296 0-26.623 21.516-48.637 48.154-48.637 26.639 0 48.154 22.014 48.154 48.637 0 26.452-21.515 48.296-48.154 48.296Z"/><path fill="url(#g)" d="M771.873 103.754v76.966c0 17.237-13.831 31.401-31.078 31.401-17.076 0-31.078-14.164-31.078-31.401v-76.966h-15.198v76.966c0 25.599 20.833 46.248 46.276 46.248 25.614 0 46.446-20.649 46.446-46.248v-76.966h-15.368Z"/><path fill="url(#h)" d="M834.529 225.262h15.368v-106.49H882v-15.018h-79.574v15.018h32.103v106.49Z"/><defs><linearGradient id="a" x1="448.247" x2="441" y1="93.994" y2="286.5" gradientUnits="userSpaceOnUse"><stop stop-color="#fff" stop-opacity=".61"/><stop offset=".642" stop-color="#fff" stop-opacity=".382"/><stop offset="1" stop-color="#fff" stop-opacity=".07"/></linearGradient><linearGradient id="b" x1="448.247" x2="441" y1="93.994" y2="286.5" gradientUnits="userSpaceOnUse"><stop stop-color="#fff" stop-opacity=".61"/><stop offset=".642" stop-color="#fff" stop-opacity=".382"/><stop offset="1" stop-color="#fff" stop-opacity=".07"/></linearGradient><linearGradient id="c" x1="448.247" x2="441" y1="93.994" y2="286.5" gradientUnits="userSpaceOnUse"><stop stop-color="#fff" stop-opacity=".61"/><stop offset=".642" stop-color="#fff" stop-opacity=".382"/><stop offset="1" stop-color="#fff" stop-opacity=".07"/></linearGradient><linearGradient id="d" x1="448.247" x2="441" y1="93.994" y2="286.5" gradientUnits="userSpaceOnUse"><stop stop-color="#fff" stop-opacity=".61"/><stop offset=".642" stop-color="#fff" stop-opacity=".382"/><stop offset="1" stop-color="#fff" stop-opacity=".07"/></linearGradient><linearGradient id="e" x1="448.247" x2="441" y1="93.994" y2="286.5" gradientUnits="userSpaceOnUse"><stop stop-color="#fff" stop-opacity=".61"/><stop offset=".642" stop-color="#fff" stop-opacity=".382"/><stop offset="1" stop-color="#fff" stop-opacity=".07"/></linearGradient><linearGradient id="f" x1="448.247" x2="441" y1="93.994" y2="286.5" gradientUnits="userSpaceOnUse"><stop stop-color="#fff" stop-opacity=".61"/><stop offset=".642" stop-color="#fff" stop-opacity=".382"/><stop offset="1" stop-color="#fff" stop-opacity=".07"/></linearGradient><linearGradient id="g" x1="448.247" x2="441" y1="93.994" y2="286.5" gradientUnits="userSpaceOnUse"><stop stop-color="#fff" stop-opacity=".61"/><stop offset=".642" stop-color="#fff" stop-opacity=".382"/><stop offset="1" stop-color="#fff" stop-opacity=".07"/></linearGradient><linearGradient id="h" x1="448.247" x2="441" y1="93.994" y2="286.5" gradientUnits="userSpaceOnUse"><stop stop-color="#fff" stop-opacity=".61"/><stop offset=".642" stop-color="#fff" stop-opacity=".382"/><stop offset="1" stop-color="#fff" stop-opacity=".07"/></linearGradient></defs></svg>