<svg width="238" height="126" viewBox="0 0 238 126" fill="none" xmlns="http://www.w3.org/2000/svg"><path d="M16.5153 5.32878C15.1597 5.32878 14.1428 4.08887 14.4081 2.7595V2.7595C14.6087 1.75476 15.4907 1.03137 16.5153 1.03137H26.5898C33.5661 1.03137 40.5423 0.687583 47.5186 0L18.0125 106.06C16.9832 109.727 16.4685 112.134 16.4685 113.28C16.4685 115.572 17.7265 116.718 20.2426 116.718C24.3013 116.718 30.2012 109.97 37.9424 96.4752C38.5019 95.5 39.7337 95.1308 40.7293 95.6534V95.6534C41.7353 96.1814 42.1318 97.4208 41.6031 98.4265C31.9386 116.809 21.8449 126 11.3221 126C8.00554 126 5.26078 125.026 3.08785 123.078C1.02928 121.015 0 118.551 0 115.686C0 113.623 0.914919 109.211 2.74476 102.45L29.8492 5.32878H16.5153Z" fill="url(#paint0_linear_2_32)"/><path d="M124.841 39.708H139.937L125.184 91.7926C122.325 101.992 120.896 108.467 120.896 111.217C120.896 113.509 121.868 114.655 123.812 114.655C125.985 114.655 128.901 112.42 132.561 107.951C135.659 104.282 138.179 100.729 140.121 97.2918C140.774 96.1358 142.288 95.7586 143.367 96.5314V96.5314C144.251 97.1635 144.529 98.3551 143.994 99.3006C140.284 105.863 135.844 111.841 130.674 117.233C125.07 123.078 119.237 126 113.176 126C106.657 126 103.398 122.505 103.398 115.514C103.398 111.962 104.084 108.123 105.456 103.997L105.113 103.653C96.3073 118.551 85.2711 126 72.0048 126C66.1722 126 61.0829 123.937 56.7371 119.812C52.5056 115.572 50.3898 108.925 50.3898 99.8718C50.3898 90.704 53.1346 81.2497 58.6241 71.5089C64.228 61.7681 71.3186 53.689 79.896 47.2715C88.5877 40.854 96.9935 37.6453 105.113 37.6453C109.917 37.6453 113.576 39.2497 116.092 42.4584C118.723 45.5525 120.038 49.6207 120.038 54.663H120.381L124.841 39.708ZM66.8584 107.779C66.8584 111.332 67.8305 114.254 69.7747 116.546C71.7189 118.723 74.4064 119.812 77.8374 119.812C83.0982 119.812 88.2446 117.405 93.2766 112.592C98.423 107.779 102.655 101.992 105.971 95.2306C109.288 88.4693 111.918 81.708 113.862 74.9468C115.921 68.1855 116.95 62.6276 116.95 58.2729C116.95 47.3861 113.062 41.9427 105.285 41.9427C100.139 41.9427 95.0493 44.5784 90.0172 49.8499C84.9852 55.0068 80.868 61.2524 77.6658 68.5866C74.4636 75.9209 71.8332 83.1978 69.7747 90.4175C67.8305 97.5225 66.8584 103.31 66.8584 107.779Z" fill="url(#paint1_linear_2_32)"/><path d="M172.072 5.32878C170.75 5.32878 169.741 4.14659 169.95 2.84127V2.84127C170.116 1.79858 171.016 1.03137 172.072 1.03137H182.247C188.766 1.03137 195.17 0.687583 201.46 0L185.85 56.7258L186.193 57.0696C190.767 50.5375 195.113 45.6671 199.23 42.4584C203.347 39.2497 208.665 37.6453 215.184 37.6453C221.017 37.6453 226.278 39.7653 230.967 44.0055C235.656 48.2456 238 55.1214 238 64.633C238 74.4884 235.084 84.2292 229.251 93.8554C223.533 103.367 215.928 111.102 206.435 117.061C197.057 123.02 187.451 126 177.615 126C172.926 126 168.981 125.427 165.779 124.281C162.691 123.135 160.518 121.645 159.26 119.812C158.116 117.864 157.316 116.259 156.858 114.999C156.515 113.623 156.344 112.191 156.344 110.701C156.344 107.378 157.716 100.674 160.461 90.5894L183.791 5.32878H172.072ZM221.531 59.3042C221.531 54.9495 220.559 51.2824 218.615 48.3029C216.785 45.3233 213.926 43.8336 210.038 43.8336C204.32 43.8336 198.944 46.9277 193.912 53.116C188.88 59.1896 184.935 66.2947 182.076 74.4311C179.216 82.4529 176.929 89.7872 175.214 96.4338C173.613 103.08 172.812 107.607 172.812 110.014C172.812 111.962 172.926 113.623 173.155 114.999C173.384 116.259 174.184 117.52 175.557 118.78C176.929 120.041 178.873 120.671 181.389 120.671C188.137 120.671 194.77 116.603 201.289 108.467C207.808 100.216 212.783 91.3915 216.214 81.9945C219.759 72.5975 221.531 65.0341 221.531 59.3042Z" fill="url(#paint2_linear_2_32)"/><defs><linearGradient id="paint0_linear_2_32" x1="555.441" y1="-20.8524" x2="555.441" y2="142.449" gradientUnits="userSpaceOnUse"><stop stop-color="white" stop-opacity="0.61"/><stop offset="0.642022" stop-color="white" stop-opacity="0.38193"/><stop offset="1" stop-color="white" stop-opacity="0.07"/></linearGradient><linearGradient id="paint1_linear_2_32" x1="555.441" y1="-20.8524" x2="555.441" y2="142.449" gradientUnits="userSpaceOnUse"><stop stop-color="white" stop-opacity="0.61"/><stop offset="0.642022" stop-color="white" stop-opacity="0.38193"/><stop offset="1" stop-color="white" stop-opacity="0.07"/></linearGradient><linearGradient id="paint2_linear_2_32" x1="555.441" y1="-20.8524" x2="555.441" y2="142.449" gradientUnits="userSpaceOnUse"><stop stop-color="white" stop-opacity="0.61"/><stop offset="0.642022" stop-color="white" stop-opacity="0.38193"/><stop offset="1" stop-color="white" stop-opacity="0.07"/></linearGradient></defs></svg>
